<svg width="53" height="70" viewBox="0 0 53 70" fill="none" xmlns="http://www.w3.org/2000/svg">
<path d="M49.9903 14.8491C53.3693 16.7027 53.0769 21.649 49.503 23.0913L36.3187 28.4121C32.6921 29.8755 32.3276 34.8659 35.7031 36.8406C37.862 38.1036 38.1765 41.0983 36.3273 42.7824L9.26929 67.4211C5.82438 70.5576 0.445001 67.1308 1.8314 62.683L8.8105 40.2957C9.58217 37.8206 8.54409 35.1403 6.30627 33.8311L2.76263 31.7581C0.38299 30.366 -0.231256 27.1992 1.45558 25.0186L19.0504 2.27382C20.426 0.495621 22.8912 -0.0179597 24.8622 1.06332L49.9903 14.8491Z" fill="url(#paint0_linear_10_59)" stroke="black"/>
<defs>
<linearGradient id="paint0_linear_10_59" x1="53.7731" y1="16.141" x2="16.3516" y2="-1.73131" gradientUnits="userSpaceOnUse">
<stop stop-color="#FF6432"/>
<stop offset="1" stop-color="#FFA228"/>
</linearGradient>
</defs>
</svg>
